# AST/ASF file generated using VICON BodyLanguage
# -----------------------------------------------
:version 1.10
:name VICON
:units
  mass 1.0
  length 0.45
  angle deg
:documentation
   .ast/.asf automatically generated from VICON data using
   VICON BodyBuilder and BodyLanguage model FoxedUp or BRILLIANT.MOD
:root
   order TX TY TZ RX RY RZ
   axis XYZ
   position 0 0 0  
   orientation 0 0 0 
:bonedata
  begin
     id 1 
     name lhipjoint
     direction 0.558404 -0.748506 0.357664 
     length 2.4234 
     axis 0 0 0  XYZ
  end
  begin
     id 2 
     name lfemur
     direction 0.34202 -0.939693 0  
     length 7.14567  
     axis 0 0 20  XYZ
    dof rx ry rz
    limits (-160.0 20.0)
           (-70.0 70.0)
           (-60.0 70.0)
  end
  begin
     id 3 
     name ltibia
     direction 0.34202 -0.939693 0   
     length 8.13956   
     axis 0 0 20   XYZ
    dof rx
    limits (-10.0 170.0)
  end
  begin
     id 4 
     name lfoot
     direction 0.0791314 -0.217412 0.972867   
     length 2.00134   
     axis -90 7.62852e-016 20   XYZ
    dof rx rz
    limits (-45.0 90.0)
           (-70.0 20.0)
  end
  begin
     id 5 
     name ltoes
     direction 1.53547e-011 -4.21922e-011 1   
     length 1.00735   
     axis -90 7.62852e-016 20   XYZ
    dof rx
    limits (-90.0 20.0)
  end
  begin
     id 6 
     name rhipjoint
     direction -0.496392 -0.78327 0.374276   
     length 2.31584  
     axis 0 0 0  XYZ 
  end
  begin
     id 7 
     name rfemur
     direction -0.34202 -0.939693 0   
     length 7.47417   
     axis 0 0 -20   XYZ
    dof rx ry rz
    limits (-160.0 20.0)
           (-70.0 70.0)
           (-70.0 60.0)
  end
  begin
     id 8 
     name rtibia
     direction -0.34202 -0.939693 0   
     length 7.69071   
     axis 0 0 -20   XYZ
    dof rx
    limits (-10.0 170.0)
 end
 begin
     id 9 
     name rfoot
     direction -0.103069 -0.28318 0.953512   
     length 2.16135  
     axis -90 -7.62852e-016 -20   XYZ
    dof rx rz
    limits (-45.0 90.0)
           (-20.0 70.0)
  end
  begin
     id 10 
     name rtoes
     direction -1.53581e-011 -4.21904e-011 1   
     length 1.07867   
     axis -90 -7.62852e-016 -20   XYZ
    dof rx
    limits (-90.0 20.0)
  end
  begin
     id 11 
     name lowerback
     direction -0.0258961 0.994776 -0.0987407   
     length 2.19412   
     axis 0 0 0   XYZ
    dof rx ry rz
    limits (-20.0 45.0)
           (-30.0 30.0)
           (-30.0 30.0)
  end
  begin
     id 12 
     name upperback
     direction 0.0402454 0.999185 0.00320666   
     length 2.18445   
     axis 0 0 0   XYZ
    dof rx ry rz
    limits (-20.0 45.0)
           (-30.0 30.0)
           (-30.0 30.0)
  end
  begin
     id 13 
     name thorax
     direction 0.0519376 0.997415 0.0496558   
     length 2.21487   
     axis 0 0 0   XYZ
    dof rx ry rz
    limits (-20.0 45.0)
           (-30.0 30.0)
           (-30.0 30.0)
  end
  begin
     id 14 
     name lowerneck
     direction -0.0921276 0.983211 0.157506   
     length 1.61201   
     axis 0 0 0   XYZ
    dof rx ry rz
    limits (-20.0 45.0)
           (-30.0 30.0)
           (-30.0 30.0)
  end
  begin
     id 15 
     name upperneck
     direction 0.0820814 0.98162 -0.172292   
     length 1.65275   
     axis 0 0 0   XYZ
    dof rx ry rz
    limits (-20.0 45.0)
           (-30.0 30.0)
           (-30.0 30.0)
  end
  begin
     id 16
     name head
     direction 0.0336554 0.996413 -0.0776455  
     length 1.66415  
     axis 0 0 0   XYZ
    dof rx ry rz
    limits (-20.0 45.0)
           (-30.0 30.0)
           (-30.0 30.0)
  end
  begin
     id 17 
     name lclavicle
     direction 0.94696 0.284418 -0.149576  
     length 3.41447  
     axis 0 0 0   XYZ
    dof ry rz
    limits (-20.0 10.0)
           (0.0 20.0)
  end
  begin
     id 18 
     name lhumerus
     direction 1 -0.000130264 -9.81312e-005   
     length 5.19964   
     axis 180 -30 -90   XYZ
    dof rx ry rz
    limits (-60.0 90.0)
           (-90.0 90.0)
           (-90.0 90.0)
  end
  begin
     id 19
     name lradius
     direction 1 -4.48961e-011 1.43854e-026   
     length 3.32189   
     axis 180 -30 -90   XYZ
    dof rx
    limits (-10.0 170.0)
  end
  begin
     id 20
     name lwrist
     direction 1 -4.48958e-011 3.1502e-026   
     length 1.66095   
     axis -1.97692e-014 90 90   XYZ
    dof ry
    limits (-180.0 0.0)
 end
  begin
     id 21 
     name lhand
     direction 1 -4.48927e-011 6.3004e-026   
     length 0.645616   
     axis -4.02019e-014 90 90   XYZ
    dof rx rz
    limits (-90.0 90.0)
           (-45.0 45.0)
  end
  begin
     id 22 
     name lfingers
     direction 1 -4.4904e-011 1.26008e-025   
     length 0.520512   
     axis -8.04039e-014 90 90   XYZ
    dof rx
    limits (0.0 90.0)
  end
  begin
     id 23
     name lthumb
     direction 0.707107 -6.34947e-011 0.707107   
     length 0.747354   
     axis -90 45 2.85299e-015   XYZ
    dof rx rz
    limits (-45.0 45.0)
           (-45.0 45.0)
  end
  begin
     id 24 
     name rclavicle
     direction -0.909391 0.383475 -0.161107   
     length 3.25176  
     axis 0 0 0   XYZ 
    dof ry rz
    limits (-10.0 20.0)
           (-20.0 0.0)
  end
  begin
     id 25 
     name rhumerus
     direction -1 -4.48965e-011 -1.81384e-027  
     length 5.6595   
     axis 180 30 90   XYZ
    dof rx ry rz
    limits (-90.0 60.0)
           (-90.0 90.0)
           (-90.0 90.0)
  end
  begin
     id 26 
     name rradius
     direction -1 -4.48996e-011 -8.09397e-027   
     length 3.37604   
     axis 180 30 90   XYZ
    dof rx
    limits (-10.0 170.0)
  end
  begin
     id 27 
     name rwrist
     direction -1 -4.48927e-011 -1.56669e-026   
     length 1.68802   
     axis 1.21142e-014 -90 -90   XYZ
    dof ry
    limits (-180.0 0.0)
  end
  begin
     id 28
     name rhand
     direction -1 -4.48912e-011 -3.13339e-026   
     length 0.824702   
     axis 1.99937e-014 -90 -90   XYZ
    dof rx rz
    limits (-90.0 90.0)
           (-45.0 45.0)
  end
  begin
     id 29
     name rfingers
     direction -1 -4.49011e-011 -6.26677e-026   
     length 0.664896   
     axis 3.99874e-014 -90 -90   XYZ
    dof rx
    limits (0.0 90.0)
  end
  begin
     id 30
     name rthumb
     direction -0.707107 -6.34931e-011 0.707107   
     length 0.954662   
     axis -90 -45 -2.85299e-015   XYZ
    dof rx rz
    limits (-45.0 45.0)
           (-45.0 45.0)
  end
:hierarchy
  begin
    root lhipjoint rhipjoint lowerback
    lhipjoint lfemur
    lfemur ltibia
    ltibia lfoot
    lfoot ltoes
    rhipjoint rfemur
    rfemur rtibia
    rtibia rfoot
    rfoot rtoes
    lowerback upperback
    upperback thorax
    thorax lowerneck lclavicle rclavicle
    lowerneck upperneck
    upperneck head
    lclavicle lhumerus
    lhumerus lradius
    lradius lwrist
    lwrist lhand lthumb
    lhand lfingers
    rclavicle rhumerus
    rhumerus rradius
    rradius rwrist
    rwrist rhand rthumb
    rhand rfingers
  end

#!OML:ASF F:\VICON\USERDATA\INSTALL\rory3\rory3.ASF
:FULLY-SPECIFIED
:DEGREES
501
root 9.39812 17.5905 -12.9482 14.8938 -44.1163 -4.67827
lowerback 8.06967 -1.86709 -6.9176
upperback 1.88051 -3.00176 2.67147
thorax -2.06003 -1.48798 6.98297
lowerneck -9.13299 -1.413 -9.35035
upperneck 24.9465 -4.32569 14.7282
head 9.84552 -1.51047 6.37117
rclavicle 6.54002e-014 1.39149e-014
rhumerus -37.8069 -22.9214 -69.0924
rradius 38.5113
rwrist -14.7046
rhand -11.5132 17.3406
rfingers 7.12502
rthumb 14.5261 -12.1308
lclavicle 6.54002e-014 1.39149e-014
lhumerus -2.72993 20.4194 83.0054
lradius 25.9845
lwrist -12.5479
lhand -3.21717 32.3656
lfingers 7.12502
lthumb 22.5055 61.0741
rfemur -34.666 -0.949438 13.5919
rtibia 53.1069
rfoot -15.3313 -3.13954
rtoes 1.12561
lfemur -16.566 3.70714 -22.1032
ltibia 36.1577
lfoot -29.5863 15.8866
ltoes 5.41397
502
root 9.34092 17.576 -12.9012 15.1595 -43.9029 -4.80654
lowerback 7.71833 -1.77728 -6.56833
upperback 2.06929 -2.83321 2.51858
thorax -1.72259 -1.42457 6.58306
lowerneck -9.31421 -1.54426 -9.41702
upperneck 24.7475 -4.55405 15.1052
head 9.85431 -1.57835 6.49238
rclavicle 8.15017e-015 1.27222e-014
rhumerus -37.6054 -23.7374 -69.1505
rradius 38.751
rwrist -14.7711
rhand -11.5694 17.315
rfingers 7.12502
rthumb 14.4719 -12.1603
lclavicle 8.15017e-015 1.27222e-014
lhumerus -2.14029 20.3766 82.8727
lradius 25.9312
lwrist -12.6628
lhand -3.51448 32.2761
lfingers 7.12502
lthumb 22.2201 61.0188
rfemur -34.7235 -0.937303 13.7822
rtibia 53.4722
rfoot -15.6019 -3.38077
rtoes 1.56141
lfemur -16.5062 4.04262 -21.8861
ltibia 36.1314
lfoot -29.69 15.3454
ltoes 5.49266
503
root 9.28097 17.5643 -12.8445 15.2919 -43.7188 -4.85365
lowerback 7.70332 -1.89919 -6.63211
upperback 2.03353 -2.9978 2.61343
thorax -1.71607 -1.50635 6.73283
lowerneck -9.35982 -1.47328 -9.60448
upperneck 24.8555 -4.43639 15.1446
head 9.88795 -1.53557 6.5608
rclavicle 3.85642e-014 -2.14687e-014
rhumerus -37.4106 -23.4163 -69.1553
rradius 38.9518
rwrist -14.888
rhand -11.3389 17.4845
rfingers 7.12502
rthumb 14.694 -11.9748
lclavicle 3.85642e-014 -2.14687e-014
lhumerus -2.10758 21.2635 82.5538
lradius 25.8643
lwrist -12.4889
lhand -3.25414 32.2123
lfingers 7.12502
lthumb 22.47 60.9251
rfemur -34.654 -1.1743 13.93
rtibia 53.7939
rfoot -15.7592 -3.40462
rtoes 1.29282
lfemur -16.2962 3.83825 -21.7775
ltibia 36.1174
lfoot -29.8751 15.5162
ltoes 4.52477
504
root 9.21695 17.5556 -12.7869 15.4379 -43.5308 -4.90312
lowerback 7.72943 -1.9749 -6.73849
upperback 1.94934 -3.10737 2.69726
thorax -1.78949 -1.55533 6.8951
lowerneck -9.44494 -1.44224 -9.58359
upperneck 25.0311 -4.39965 15.0872
head 9.96048 -1.51882 6.54938
rclavicle 1.18277e-013 -9.54166e-015
rhumerus -37.4106 -22.636 -69.2444
rradius 39.3622
rwrist -15.458
rhand -11.2136 17.5379
rfingers 7.12502
rthumb 14.8147 -11.9125
lclavicle 1.18277e-013 -9.54166e-015
lhumerus -2.06226 21.7967 82.0715
lradius 25.6718
lwrist -12.7945
lhand -2.28644 32.1329
lfingers 7.12502
lthumb 23.3986 60.7305
rfemur -34.5641 -1.41136 14.0686
rtibia 54.0878
rfoot -15.9335 -3.17406
rtoes 2.82708
lfemur -16.0732 3.30535 -21.6947
ltibia 36.1323
lfoot -30.1345 16.0808
ltoes 3.57487
505
root 9.15384 17.5429 -12.7393 15.8215 -43.296 -5.26116
lowerback 7.81023 -1.90624 -6.52209
upperback 1.83832 -3.00276 2.78708
thorax -1.97476 -1.49203 6.86699
lowerneck -9.31877 -1.49958 -9.64505
upperneck 24.9869 -4.52185 15.2694
head 9.94305 -1.56884 6.61334
rclavicle -8.15017e-014 1.11319e-014
rhumerus -37.6039 -22.4704 -69.1593
rradius 39.7603
rwrist -15.7617
rhand -11.6682 17.5331
rfingers 7.12502
rthumb 14.3767 -11.949
lclavicle -8.15017e-014 1.11319e-014
lhumerus -1.9893 22.1298 81.7514
lradius 25.6344
lwrist -14.0216
lhand -0.86075 32.4415
lfingers 7.12502
lthumb 24.7657 60.8581
rfemur -34.5525 -1.34785 14.4725
rtibia 54.3623
rfoot -16.1542 -3.14079
rtoes 5.9013
lfemur -15.9572 3.17039 -21.3146
ltibia 36.1548
lfoot -30.2467 16.2782
ltoes 2.94532
506
root 9.09307 17.5244 -12.6956 16.1853 -43.0078 -5.51139
lowerback 7.79318 -1.85921 -6.21248
upperback 1.78447 -2.9147 2.77576
thorax -2.05313 -1.44365 6.67166
lowerneck -9.01025 -1.60969 -9.88868
upperneck 24.6713 -4.70669 15.6356
head 9.81013 -1.65574 6.75812
rclavicle 1.60817e-013 -6.12257e-014
rhumerus -37.6693 -22.4626 -69.1751
rradius 40.1247
rwrist -16.0324
rhand -12.159 17.3977
rfingers 7.12502
rthumb 13.9038 -12.1175
lclavicle 1.60817e-013 -6.12257e-014
lhumerus -1.86174 22.0769 81.4311
lradius 25.6803
lwrist -14.4983
lhand -0.0528811 33.1668
lfingers 7.12502
lthumb 25.5397 61.4748
rfemur -34.6102 -1.27497 14.7862
rtibia 54.6532
rfoot -16.3993 -3.34599
rtoes 6.34016
lfemur -15.9628 3.15395 -20.9707
ltibia 36.1842
lfoot -30.3919 16.0039
ltoes 3.52137
